<?xml version="1.0" standalone="no"?>
<!DOCTYPE svg PUBLIC "-//W3C//DTD SVG 20010904//EN"
 "http://www.w3.org/TR/2001/REC-SVG-20010904/DTD/svg10.dtd">
<svg version="1.0" xmlns="http://www.w3.org/2000/svg"
 width="512.000000pt" height="512.000000pt" viewBox="0 0 512.000000 512.000000"
 preserveAspectRatio="xMidYMid meet">

<g transform="translate(0.000000,512.000000) scale(0.100000,-0.100000)"
fill="#000000" stroke="none">
<path d="M2510 4103 c-38 -7 -150 -47 -255 -92 -11 -5 -51 -21 -90 -36 -38
-15 -83 -33 -100 -40 -16 -7 -50 -20 -75 -30 -25 -10 -54 -21 -65 -26 -11 -5
-164 -65 -340 -134 -176 -69 -329 -130 -340 -135 -11 -4 -62 -25 -114 -46 -72
-29 -98 -45 -112 -68 -18 -30 -19 -65 -17 -901 l3 -870 23 -37 c28 -45 59 -68
132 -98 30 -12 64 -26 75 -31 11 -4 56 -22 100 -39 44 -18 89 -36 100 -40 11
-5 130 -52 265 -105 135 -53 288 -114 340 -135 52 -21 182 -73 289 -115 208
-83 235 -87 311 -52 19 9 71 30 115 47 44 17 89 35 100 39 11 5 85 35 165 66
80 31 159 62 175 70 17 7 95 38 175 70 80 31 235 93 345 137 110 44 214 85
230 91 38 14 95 55 115 82 39 52 40 74 40 936 0 571 -3 846 -11 867 -6 17 -21
37 -33 46 -13 8 -122 53 -242 101 -121 47 -228 90 -239 95 -11 5 -130 52 -265
105 -135 53 -288 114 -340 135 -309 126 -397 153 -460 143z m152 -227 c142
-58 914 -365 975 -387 32 -12 62 -25 68 -30 15 -14 -12 -32 -100 -66 -44 -17
-222 -87 -395 -156 -598 -237 -649 -257 -666 -257 -9 0 -30 6 -47 14 -18 8
-68 28 -112 45 -44 18 -89 36 -100 40 -11 5 -38 15 -60 24 -22 8 -85 33 -140
55 -55 22 -143 57 -195 77 -52 21 -114 46 -137 56 -23 11 -46 19 -51 19 -5 0
-22 6 -38 14 -16 7 -78 33 -139 56 -60 24 -117 50 -125 57 -23 21 -51 9 380
178 135 53 254 100 265 105 11 5 56 23 100 40 44 17 89 35 100 39 11 5 56 23
100 41 79 31 97 38 145 58 44 18 86 13 172 -22z m-1317 -631 c66 -25 165 -64
220 -87 55 -22 118 -47 140 -55 22 -9 64 -26 93 -39 29 -13 57 -24 62 -24 5 0
26 -7 47 -16 59 -26 72 -31 158 -64 44 -17 89 -35 100 -40 11 -5 74 -30 140
-56 66 -25 125 -50 132 -56 10 -8 13 -169 13 -764 0 -471 -4 -754 -10 -754 -8
0 -33 9 -85 31 -11 5 -56 22 -100 39 -44 17 -89 35 -100 40 -11 5 -56 23 -100
40 -44 17 -89 35 -100 40 -11 5 -51 21 -90 35 -38 15 -83 33 -100 40 -16 8
-106 44 -200 81 -93 36 -188 74 -210 84 -22 9 -66 27 -97 40 l-58 22 0 752 c0
414 3 756 6 759 4 4 10 5 13 3 3 -2 60 -25 126 -51z m2553 -702 c2 -593 -1
-753 -10 -761 -14 -10 -71 -34 -308 -127 -80 -31 -199 -79 -265 -105 -300
-122 -630 -250 -646 -250 -9 0 -20 7 -23 16 -3 9 -6 341 -6 739 0 674 1 724
18 743 9 12 71 42 137 67 66 25 129 50 140 55 18 8 60 25 305 121 41 17 84 34
95 39 11 5 85 34 165 65 179 70 175 69 285 115 50 21 95 37 100 36 7 -2 11
-263 13 -753z"/>
</g>
</svg>
